<?xml version="1.0" encoding="utf-8"?>
<svg xmlns="http://www.w3.org/2000/svg" height="128" width="128" viewBox="0 0 128 128">
	<g>
		<path id="path1" transform="rotate(0,64,64) translate(30,30) scale(2.125,2.125)  " fill="#92f1ec" d="M32,19.400024L32,28.300018 26,31.900024 26,22.800018z M19.399994,19.400024L25.5,22.900024 25.5,32 19.399994,28.300018z M7.1999969,15.800018C8.8999939,17.100006 11.099991,17.900024 13.399994,17.900024 15.699997,17.900024 17.899994,17.100006 19.599991,15.800018 22.800003,16.200012 25.399994,18.400024 26.399994,21.300018L26.5,21.600006 25.699997,22 18.5,17.900024 18.5,27.5 0,27.5 0,24C0,19.800018,3.0999908,16.300018,7.1999969,15.800018z M13.399994,0C17.5,0 20.899994,3.4000244 20.899994,7.5 20.899994,11.600006 17.5,15 13.399994,15 9.3000031,15 5.8999939,11.600006 5.8999939,7.5 5.8999939,3.4000244 9.3000031,0 13.399994,0z" />
	</g>
</svg>